<svg width="189" height="51" viewBox="0 0 189 51" fill="none" xmlns="http://www.w3.org/2000/svg">
<g filter="url(#filter0_d)">
<path d="M13.6456 13.084V18.8757L4 25.3265V29.5335L13.6456 35.9843V39.8015C13.6456 40.5453 13.9279 41.2587 14.4304 41.7847C14.9328 42.3107 15.6143 42.6062 16.3249 42.6062H34.957C35.6676 42.6062 36.3491 42.3107 36.8516 41.7847C37.3541 41.2587 37.6364 40.5453 37.6364 39.8015V13.084H13.6456ZM8.85763 27.5001V27.3542L13.6456 24.328V30.5236L8.85763 27.5001Z" fill="#63C29D"/>
<path d="M21.1022 8.05246C21.1022 8.47036 21.563 8.89386 22.3293 9.17433L21.5925 10.8123C19.9393 10.0746 19.2722 9.07897 19.2722 8.02161C19.2722 6.67536 20.3761 6.1621 20.3761 5.29545C20.3761 4.86072 19.9152 4.45404 19.1489 4.17357L19.8777 2.52441C21.5309 3.27327 22.2194 4.26893 22.2194 5.3291C22.2194 6.67536 21.1022 7.18861 21.1022 8.05246Z" fill="#63C29D"/>
<path d="M30.346 8.05246C30.346 8.47036 30.8069 8.89386 31.5705 9.17433L30.8364 10.8123C29.1832 10.0746 28.508 9.07897 28.508 8.02161C28.508 6.67536 29.6119 6.1621 29.6119 5.29545C29.6119 4.86072 29.1511 4.45404 28.3848 4.17357L29.1216 2.52441C30.7747 3.26205 31.4499 4.25771 31.4499 5.3291C31.4499 6.67536 30.346 7.18861 30.346 8.05246Z" fill="#63C29D"/>
<path d="M25.8822 5.51683C25.8822 5.93192 26.343 6.35823 27.1093 6.6387L26.3725 8.27384C24.7193 7.5362 24.0441 6.54334 24.0441 5.48317C24.0441 4.13692 25.148 3.62366 25.148 2.75701C25.148 2.32509 24.6872 1.9156 23.9209 1.63513L24.6577 0C26.3109 0.737634 26.9861 1.73049 26.9861 2.80469C26.9861 4.13692 25.8822 4.65018 25.8822 5.51683Z" fill="#63C29D"/>
</g>
<g filter="url(#filter1_d)">
<path d="M25.3062 23.6401H28.2577V25.1042H27.1388V31.6268H28.2577V33.0908H25.3062V23.6401Z" fill="white"/>
<path d="M31.3027 33.0908V31.6268H32.4216V25.1042H31.3027V23.6401H34.2543V33.0908H31.3027Z" fill="white"/>
</g>
<g filter="url(#filter2_d)">
<path d="M28.6499 12.9014H30.7934V22.7178H28.6499V12.9014Z" fill="white"/>
</g>
<g filter="url(#filter3_d)">
<path d="M58.3729 19.6578V32.2578H56.0329V26.8578H49.5169V32.2578H47.1769V19.6578H49.5169V24.8598H56.0329V19.6578H58.3729ZM70.8391 30.2958V32.2578H61.3891V19.6578H70.5871V21.6198H63.7291V24.8958H69.8131V26.8218H63.7291V30.2958H70.8391ZM81.2597 29.3418H74.9597L73.7177 32.2578H71.3057L76.9757 19.6578H79.2797L84.9677 32.2578H82.5197L81.2597 29.3418ZM80.4857 27.5058L78.1097 21.9978L75.7517 27.5058H80.4857ZM86.2101 19.6578H88.5501V30.2778H95.1381V32.2578H86.2101V19.6578ZM98.0038 21.6378H93.8278V19.6578H104.52V21.6378H100.344V32.2578H98.0038V21.6378ZM117.112 19.6578V32.2578H114.772V26.8578H108.256V32.2578H105.916V19.6578H108.256V24.8598H114.772V19.6578H117.112ZM125.564 27.8118V32.2578H123.224V27.8478L118.274 19.6578H120.776L124.466 25.7958L128.192 19.6578H130.496L125.564 27.8118Z" fill="#63C29D"/>
<path d="M136.91 19.6578H141.896C143.204 19.6578 144.362 19.9278 145.37 20.4678C146.39 21.0078 147.182 21.7578 147.746 22.7178C148.31 23.6658 148.592 24.7458 148.592 25.9578C148.592 27.1698 148.31 28.2558 147.746 29.2158C147.182 30.1638 146.39 30.9078 145.37 31.4478C144.362 31.9878 143.204 32.2578 141.896 32.2578H136.91V19.6578ZM141.824 31.4298C142.988 31.4298 144.014 31.2018 144.902 30.7458C145.79 30.2778 146.474 29.6298 146.954 28.8018C147.434 27.9738 147.674 27.0258 147.674 25.9578C147.674 24.8898 147.434 23.9418 146.954 23.1138C146.474 22.2858 145.79 21.6438 144.902 21.1878C144.014 20.7198 142.988 20.4858 141.824 20.4858H137.828V31.4298H141.824ZM160.115 31.4298V32.2578H151.421V19.6578H159.845V20.4858H152.339V25.4538H159.053V26.2638H152.339V31.4298H160.115ZM172.989 19.6578L167.373 32.2578H166.455L160.839 19.6578H161.847L166.941 31.0698L172.035 19.6578H172.989Z" fill="white"/>
</g>
<defs>
<filter id="filter0_d" x="0" y="0" width="41.6364" height="50.6062" filterUnits="userSpaceOnUse" color-interpolation-filters="sRGB">
<feFlood flood-opacity="0" result="BackgroundImageFix"/>
<feColorMatrix in="SourceAlpha" type="matrix" values="0 0 0 0 0 0 0 0 0 0 0 0 0 0 0 0 0 0 127 0"/>
<feOffset dy="4"/>
<feGaussianBlur stdDeviation="2"/>
<feColorMatrix type="matrix" values="0 0 0 0 0 0 0 0 0 0 0 0 0 0 0 0 0 0 0.25 0"/>
<feBlend mode="normal" in2="BackgroundImageFix" result="effect1_dropShadow"/>
<feBlend mode="normal" in="SourceGraphic" in2="effect1_dropShadow" result="shape"/>
</filter>
<filter id="filter1_d" x="21.3062" y="23.6401" width="16.9481" height="17.4507" filterUnits="userSpaceOnUse" color-interpolation-filters="sRGB">
<feFlood flood-opacity="0" result="BackgroundImageFix"/>
<feColorMatrix in="SourceAlpha" type="matrix" values="0 0 0 0 0 0 0 0 0 0 0 0 0 0 0 0 0 0 127 0"/>
<feOffset dy="4"/>
<feGaussianBlur stdDeviation="2"/>
<feColorMatrix type="matrix" values="0 0 0 0 0 0 0 0 0 0 0 0 0 0 0 0 0 0 0.25 0"/>
<feBlend mode="normal" in2="BackgroundImageFix" result="effect1_dropShadow"/>
<feBlend mode="normal" in="SourceGraphic" in2="effect1_dropShadow" result="shape"/>
</filter>
<filter id="filter2_d" x="24.6499" y="12.9014" width="10.1435" height="17.8164" filterUnits="userSpaceOnUse" color-interpolation-filters="sRGB">
<feFlood flood-opacity="0" result="BackgroundImageFix"/>
<feColorMatrix in="SourceAlpha" type="matrix" values="0 0 0 0 0 0 0 0 0 0 0 0 0 0 0 0 0 0 127 0"/>
<feOffset dy="4"/>
<feGaussianBlur stdDeviation="2"/>
<feColorMatrix type="matrix" values="0 0 0 0 0 0 0 0 0 0 0 0 0 0 0 0 0 0 0.25 0"/>
<feBlend mode="normal" in2="BackgroundImageFix" result="effect1_dropShadow"/>
<feBlend mode="normal" in="SourceGraphic" in2="effect1_dropShadow" result="shape"/>
</filter>
<filter id="filter3_d" x="43.1768" y="19.6577" width="133.812" height="20.6" filterUnits="userSpaceOnUse" color-interpolation-filters="sRGB">
<feFlood flood-opacity="0" result="BackgroundImageFix"/>
<feColorMatrix in="SourceAlpha" type="matrix" values="0 0 0 0 0 0 0 0 0 0 0 0 0 0 0 0 0 0 127 0"/>
<feOffset dy="4"/>
<feGaussianBlur stdDeviation="2"/>
<feColorMatrix type="matrix" values="0 0 0 0 0 0 0 0 0 0 0 0 0 0 0 0 0 0 0.25 0"/>
<feBlend mode="normal" in2="BackgroundImageFix" result="effect1_dropShadow"/>
<feBlend mode="normal" in="SourceGraphic" in2="effect1_dropShadow" result="shape"/>
</filter>
</defs>
</svg>
