<svg width="23" height="25" viewBox="0 0 23 25" fill="none" xmlns="http://www.w3.org/2000/svg">
<path d="M22.7889 10.6533H11.7341V15.2969H18.0494C17.777 16.7979 16.9509 18.0675 15.7056 18.918C14.6531 19.6373 13.3098 20.0625 11.731 20.0625C8.67434 20.0625 6.08887 17.9518 5.16483 15.1156C4.93229 14.3964 4.79766 13.6271 4.79766 12.836C4.79766 12.0448 4.93229 11.2756 5.16483 10.5564C6.09193 7.72326 8.6774 5.61251 11.7341 5.61251C13.4567 5.61251 15.0019 6.21915 16.2196 7.40743L19.5853 3.96456C17.5506 2.0258 14.8978 0.837524 11.7341 0.837524C7.14753 0.837524 3.17906 3.52678 1.24837 7.44808C0.45284 9.06788 0 10.9003 0 12.8391C0 14.7779 0.45284 16.6072 1.24837 18.227C3.17906 22.1483 7.14753 24.8375 11.7341 24.8375C14.904 24.8375 17.5598 23.7618 19.4997 21.9294C21.718 19.8405 23 16.7635 23 13.108C23 12.2575 22.9266 11.4413 22.7889 10.6533Z" fill="#FCFCFC"/>
</svg>
