<svg width="21" height="19" viewBox="0 0 21 19" xmlns="http://www.w3.org/2000/svg">
<path d="M13.5 9.03125L11.5469 12.9375C11.3125 13.4062 10.6484 13.3672 10.4141 12.8984L8.1875 7.97656L7.01562 10.75H3.34375L10.4922 18.0547C10.7656 18.3281 11.1953 18.3281 11.4688 18.0547L18.6172 10.75H14.3594L13.5 9.03125ZM19.4766 2.39062L19.3984 2.3125C17.3672 0.242188 14.0859 0.242188 12.0547 2.3125L11 3.40625L9.90625 2.3125C7.875 0.242188 4.59375 0.242188 2.5625 2.3125L2.48438 2.39062C0.570312 4.34375 0.492188 7.42969 2.21094 9.5H6.19531L7.60156 6.14062C7.79688 5.63281 8.5 5.63281 8.73438 6.14062L11 11.1797L12.9141 7.35156C13.1484 6.88281 13.8125 6.88281 14.0469 7.35156L15.1406 9.5H19.7891C21.4688 7.42969 21.3906 4.34375 19.4766 2.39062Z"/>
</svg>
