<svg width="24" height="21" viewBox="0 0 24 21" fill="none" xmlns="http://www.w3.org/2000/svg">
<path d="M3.5 12.6875V19.875C3.5 20.2266 3.77344 20.5 4.125 20.5H20.375C20.6875 20.5 21 20.2266 21 19.875V12.6875C20.7266 12.4531 19.2422 11.2031 12.25 4.99219C5.17969 11.2031 3.73438 12.4922 3.5 12.6875ZM15.7656 11.6719C16.8203 12.5703 16.8984 14.1719 15.9219 15.1484L12.6016 18.4688C12.4062 18.7031 12.0547 18.7031 11.8594 18.4688L8.53906 15.1484C7.5625 14.1719 7.64062 12.5703 8.69531 11.6719C9.63281 10.8906 11.0391 11.0078 11.8984 11.8672L12.2109 12.2188L12.5625 11.8672C13.4219 11.0078 14.8281 10.8906 15.7656 11.6719ZM3.5 12.6875C3.38281 12.7656 3.5 12.6875 3.5 12.6875V12.6875ZM23.2656 9.75781L21 7.72656V2.375C21 2.0625 20.6875 1.75 20.375 1.75H17.875C17.5234 1.75 17.25 2.0625 17.25 2.375V4.40625L13.2656 0.929688C12.6797 0.382812 11.7812 0.382812 11.1953 0.929688L1.19531 9.75781C0.921875 9.99219 0.921875 10.3828 1.15625 10.6172L1.97656 11.5547C2.21094 11.8281 2.60156 11.8281 2.875 11.5938L11.8203 3.70312C12.0547 3.50781 12.4062 3.50781 12.6406 3.70312L21.5859 11.5938C21.8594 11.8281 22.25 11.8281 22.4844 11.5547L23.3047 10.6172C23.5391 10.3828 23.5391 9.99219 23.2656 9.75781ZM21 12.6875C21 12.6875 21.0781 12.7656 21 12.6875V12.6875Z" fill="white"/>
</svg>
