<svg width="12" height="11" viewBox="0 0 12 11" xmlns="http://www.w3.org/2000/svg">
<path d="M11.0747 0.925312C10.7815 0.631961 10.4333 0.399255 10.0502 0.240486C9.66699 0.0817183 9.25629 0 8.84153 0C8.42677 0 8.01606 0.0817183 7.63289 0.240486C7.24972 0.399255 6.90158 0.631961 6.60837 0.925312L5.99985 1.53383L5.39132 0.925312C4.79905 0.333041 3.99576 0.000306995 3.15816 0.000307001C2.32057 0.000307007 1.51728 0.333041 0.925005 0.925312C0.332734 1.51758 6.24059e-09 2.32087 0 3.15847C-6.24059e-09 3.99607 0.332734 4.79936 0.925005 5.39163L1.53353 6.00015L5.99985 10.4665L10.4662 6.00015L11.0747 5.39163C11.368 5.09842 11.6007 4.75028 11.7595 4.36711C11.9183 3.98394 12 3.57324 12 3.15847C12 2.74371 11.9183 2.33301 11.7595 1.94984C11.6007 1.56666 11.368 1.21853 11.0747 0.925312Z"/>
</svg>

