<svg width="24" height="24" viewBox="0 0 24 24" fill="none" xmlns="http://www.w3.org/2000/svg">
<path d="M12 22.5C17.799 22.5 22.5 17.799 22.5 12C22.5 6.20101 17.799 1.5 12 1.5C6.20101 1.5 1.5 6.20101 1.5 12C1.5 17.799 6.20101 22.5 12 22.5Z" fill="white"/>
<path d="M17.6536 6.94643L17.3 6.59288L16.9465 6.94643L10.5 13.3929L8.0536 10.9464L7.70005 10.5929L7.3465 10.9464L5.9465 12.3464L5.59294 12.7L5.9465 13.0535L10.1465 17.2535L10.5 17.6071L10.8536 17.2535L19.0536 9.05354L19.4072 8.69999L19.0536 8.34643L17.6536 6.94643Z" fill="#63C29D" stroke="#63C29D"/>
</svg>
