<svg width="21" height="21" viewBox="0 0 21 21"  xmlns="http://www.w3.org/2000/svg">
<path d="M4.75 10.5H7.60156L4.20312 7.10156C4.16406 7.0625 4.125 6.98438 4.125 6.90625C4.125 6.82812 4.16406 6.71094 4.20312 6.67188L4.63281 6.24219C4.67188 6.20312 4.78906 6.16406 4.86719 6.16406C4.94531 6.16406 5.02344 6.20312 5.10156 6.24219L9.125 10.2656V4.5625C9.125 4.40625 9.24219 4.25 9.4375 4.25H10.0625C10.2188 4.25 10.375 4.40625 10.375 4.5625V10.5H12.4062C12.3281 10.1875 12.25 9.60156 12.25 9.25C12.25 6.51562 14.4766 4.28906 17.25 4.25C17.3281 4.25 17.4453 4.28906 17.5234 4.28906C16.8594 3.50781 15.8438 3 14.75 3C14.4375 3.03906 14.0078 3.07812 13.7344 3.15625C13.1094 1.71094 11.3125 0.5 9.75 0.5C8.14844 0.5 6.35156 1.71094 5.72656 3.15625C5.45312 3.07812 5.02344 3.03906 4.75 3C2.67969 3 1 4.71875 1 6.75C1 8.82031 2.67969 10.5 4.75 10.5ZM13.5 9.25C13.5 9.64062 13.5781 10.1875 13.6953 10.5H20.3359C20.4531 10.5391 20.6094 10.5391 20.7266 10.5781C20.8828 10.2266 20.9609 9.64062 20.9609 9.25C20.9609 7.17969 19.2812 5.5 17.2109 5.5C15.1406 5.5 13.5 7.17969 13.5 9.25ZM20.3359 11.75H1.625C1.27344 11.75 0.960938 12.0625 1 12.4141C1.23438 15.4219 3.26562 17.8828 6 18.8203V19.25C6 19.9531 6.54688 20.5 7.25 20.5H14.75C15.4141 20.5 16 19.9531 16 19.25V18.8203C18.6953 17.8438 20.6875 15.3828 20.9609 12.4141C21 12.0625 20.6875 11.75 20.3359 11.75Z" />
</svg>
