<svg width="25" height="20" viewBox="0 0 25 20" fill="none" xmlns="http://www.w3.org/2000/svg">
<path d="M16.0054 13.9975L12.0054 9.99754L8.00537 13.9975" stroke="#FCFCFC" stroke-width="2" stroke-linecap="round" stroke-linejoin="round"/>
<path d="M12.0054 9.99754V18.9975" stroke="#FCFCFC" stroke-width="2" stroke-linecap="round" stroke-linejoin="round"/>
<path d="M20.3953 16.3875C21.3707 15.8558 22.1412 15.0144 22.5852 13.9962C23.0292 12.9779 23.1215 11.8408 22.8475 10.7642C22.5735 9.68769 21.9488 8.73305 21.072 8.05099C20.1952 7.36892 19.1162 6.99828 18.0053 6.99754H16.7453C16.4426 5.82678 15.8785 4.73988 15.0953 3.81854C14.3121 2.89719 13.3302 2.16539 12.2234 1.67815C11.1167 1.19091 9.91388 0.960901 8.70545 1.00542C7.49701 1.04995 6.3144 1.36784 5.24651 1.93521C4.17862 2.50257 3.25324 3.30465 2.53995 4.28112C1.82666 5.2576 1.34402 6.38308 1.12831 7.57294C0.912601 8.76279 0.969437 9.98607 1.29454 11.1508C1.61965 12.3155 2.20457 13.3914 3.00533 14.2975" stroke="#FCFCFC" stroke-width="2" stroke-linecap="round" stroke-linejoin="round"/>
<path d="M16.0054 13.9975L12.0054 9.99754L8.00537 13.9975" stroke="#FCFCFC" stroke-width="2" stroke-linecap="round" stroke-linejoin="round"/>
</svg>