<svg width="18" height="21" viewBox="0 0 18 21" xmlns="http://www.w3.org/2000/svg">
<path d="M8.75 10.5C11.4844 10.5 13.75 8.27344 13.75 5.5C13.75 2.76562 11.4844 0.5 8.75 0.5C5.97656 0.5 3.75 2.76562 3.75 5.5C3.75 8.27344 5.97656 10.5 8.75 10.5ZM12.2266 11.75H11.5625C10.7031 12.1797 9.76562 12.375 8.75 12.375C7.73438 12.375 6.75781 12.1797 5.89844 11.75H5.23438C2.34375 11.75 0 14.1328 0 17.0234V18.625C0 19.6797 0.820312 20.5 1.875 20.5H15.625C16.6406 20.5 17.5 19.6797 17.5 18.625V17.0234C17.5 14.1328 15.1172 11.75 12.2266 11.75Z"/>
</svg>
